<?xml version="1.0" encoding="UTF-8" standalone="no"?>
<svg
   xmlns:dc="http://purl.org/dc/elements/1.1/"
   xmlns:cc="http://creativecommons.org/ns#"
   xmlns:rdf="http://www.w3.org/1999/02/22-rdf-syntax-ns#"
   xmlns:svg="http://www.w3.org/2000/svg"
   xmlns="http://www.w3.org/2000/svg"
   xml:space="preserve"
   enable-background="new 0 0 150 47.61"
   viewBox="0 0 494.54581 156.98434"
   height="156.98434"
   width="494.54581"
   y="0px"
   x="0px"
   id="Layer_1"
   version="1.1"><metadata
   id="metadata61"><rdf:RDF><cc:Work
       rdf:about=""><dc:format>image/svg+xml</dc:format><dc:type
         rdf:resource="http://purl.org/dc/dcmitype/StillImage" /><dc:title></dc:title></cc:Work></rdf:RDF></metadata><defs
   id="defs59">
	<linearGradient
   gradientTransform="scale(3.2971624)"
   id="SVGID_2_"
   gradientUnits="userSpaceOnUse"
   x1="20.747999"
   y1="0.2305"
   x2="20.747999"
   y2="39.487099">
		<stop
   offset="0"
   style="stop-color:#7EAAE0"
   id="stop29" />
		<stop
   offset="0.9906"
   style="stop-color:#53BBB9"
   id="stop31" />
	</linearGradient>
	
	

		
		
		
		
			
		
			
		
		
		
	</defs>
<g
   transform="translate(0,109.37239)"
   id="g27">
	<linearGradient
   y2="-1940.2539"
   x2="-2420.48"
   y1="-2070.0708"
   x1="-2420.48"
   gradientUnits="userSpaceOnUse"
   id="SVGID_1_">
		<stop
   id="stop2"
   style="stop-color:#7EAAE0"
   offset="0" />
		<stop
   id="stop4"
   style="stop-color:#53BBB9"
   offset="0.9906" />
	</linearGradient>
	<path
   style="fill:url(#SVGID_1_)"
   id="path7"
   d="m -2420.264,-2070.767 c -1.222,0.045 -1.938,1.249 -1.938,3.095 v 21.464 25.347 3.256 c 0,1.946 1.592,3.537 3.537,3.537 h 3.478 6.484 11.418 v 0.031 c 16.699,0 30.154,14.518 30.154,31.462 0,17.393 -14.099,31.492 -31.492,31.492 -17.146,0 -31.091,-13.703 -31.483,-30.755 h -0.01 v -2.741 0 c 0,-0.256 0,-0.522 0,-0.796 v -21.368 c 0,-1.136 0,-2.439 0,-3.537 0,-0.783 0,-1.46 0,-1.894 0,-0.434 0,-1.112 0,-1.895 0,-1.097 0,-2.401 0,-3.537 v -42.928 -6.765 c 0,-1.945 -1.591,-3.537 -3.537,-3.537 h -51.901 c -1.945,0 -3.537,1.592 -3.537,3.537 v 6.765 52.787 3.537 h 0.01 c 0,0 0,0.348 -0.01,0.772 0,0 0,0 0,0.388 0,0.521 0.01,1.038 0.02,1.555 0,0.137 0.01,0.274 0.011,0.411 0.013,0.458 0.03,0.917 0.053,1.373 0,0.063 0,0.126 0.01,0.19 0.026,0.505 0.06,1.009 0.097,1.511 0.011,0.14 0.022,0.28 0.033,0.419 0.033,0.412 0.07,0.824 0.11,1.234 0.012,0.108 0.021,0.216 0.032,0.324 0.05,0.487 0.107,0.973 0.168,1.457 0.019,0.146 0.039,0.291 0.058,0.435 0.05,0.377 0.104,0.753 0.16,1.128 0.021,0.14 0.041,0.28 0.062,0.419 0.074,0.469 0.152,0.937 0.235,1.402 0.026,0.149 0.055,0.298 0.083,0.448 0.065,0.35 0.133,0.699 0.203,1.047 0.033,0.163 0.065,0.326 0.099,0.488 0.095,0.452 0.194,0.901 0.298,1.35 0.034,0.148 0.071,0.296 0.106,0.444 0.08,0.335 0.162,0.668 0.248,1.001 0.044,0.175 0.089,0.351 0.135,0.525 0.116,0.438 0.235,0.874 0.358,1.308 v 0 c 8.14,28.46 34.62,49.316 66.032,49.316 37.893,0 68.611,-30.349 68.611,-67.786 0,-37.437 -30.526,-69.108 -68.393,-67.716 z" />
	<g
   id="g25">
		<rect
   style="fill:#231f20"
   id="rect9"
   height="78.75"
   width="9"
   y="-2023.917"
   x="-2235.9619" />
		<path
   style="fill:#231f20"
   id="path11"
   d="m -2206.023,-2024.414 -7.129,5.493 25.673,33.317 c 0.122,0.199 0.126,0.75 0.016,0.936 l -25.725,34.3 7.2,5.4 25.726,-34.3 c 2.538,-3.385 2.504,-8.464 -0.078,-11.815 z" />
		<path
   style="fill:#231f20"
   id="path13"
   d="m -2165.018,-1985.589 25.684,-33.332 -7.129,-5.493 -25.684,33.332 c -2.582,3.351 -2.615,8.43 -0.077,11.815 l 25.725,34.3 7.2,-5.4 -25.715,-34.285 c -0.119,-0.201 -0.115,-0.752 0,-0.937 z" />
		
			<rect
   style="fill:#231f20"
   id="rect15"
   height="9"
   width="113.633"
   transform="matrix(0.3109,-0.9504,0.9504,0.3109,482.7395,-3271.7349)"
   y="-1973.292"
   x="-2071.8201" />
		
			<rect
   style="fill:#231f20"
   id="rect17"
   height="66.129997"
   width="9"
   transform="matrix(0.9545,-0.2981,0.2981,0.9545,500.6235,-699.7166)"
   y="-2024.2939"
   x="-2048.3159" />
		<path
   style="fill:#231f20"
   id="path19"
   d="m -2094.92,-2023.25 h -2.917 c -4.448,0 -8.68,0.937 -12.52,2.615 l 3.721,8.191 c 2.704,-1.162 5.678,-1.806 8.799,-1.806 h 2.917 c 12.407,0 22.5,10.166 22.5,22.661 v 16.011 c 0,12.496 -10.093,22.661 -22.5,22.661 h -2.917 c -12.407,0 -22.5,-10.166 -22.5,-22.661 v -8.758 -69.456 h -9 v 69.013 9.201 0.036 0 c 0.02,17.441 14.142,31.625 31.499,31.625 h 2.917 c 17.369,0 31.5,-14.203 31.5,-31.661 v -16.011 c 0,-17.458 -14.131,-31.661 -31.5,-31.661 z" />
		<path
   style="fill:#231f20"
   id="path21"
   d="m -2265.072,-1996.33 c 4.219,4.578 6.818,10.769 6.818,17.579 0,14.061 -11.057,25.5 -24.648,25.5 h -2.788 c -13.591,0 -24.648,-11.439 -24.648,-25.5 0,-0.534 0.021,-1.062 0.053,-1.588 h -0.053 v -40.412 h -9 v 42 c 0,19.023 15.094,34.5 33.648,34.5 h 2.788 c 18.554,0 33.648,-15.477 33.648,-34.5 0,-8.97 -3.358,-17.148 -8.85,-23.291 z" />
		<path
   style="fill:#231f20"
   id="path23"
   d="m -2288.025,-2052.792 c 12.303,0 22.312,9.748 22.312,21.729 0,11.981 -10.009,21.729 -22.312,21.729 v 9 c 17.266,0 31.312,-13.785 31.312,-30.729 0,-16.944 -14.047,-30.729 -31.312,-30.729 -17.145,0 -31.108,13.594 -31.303,30.375 h 9 c 0.196,-11.818 10.122,-21.375 22.303,-21.375 z" />
	</g>
</g>
<path
   d="m 68.623841,0.06594 c -1.21995,0.0462 -1.932137,1.24633 -1.932137,3.08615 v 21.401878 25.27275 3.247705 c 0,1.938732 1.585935,3.524667 3.527964,3.524667 h 3.465317 6.465736 11.385102 v 0.02967 c 16.650667,0 30.063527,14.474543 30.063527,31.369203 0,17.339777 -14.0591,31.398877 -31.398878,31.398877 -17.095787,0 -30.999921,-13.66344 -31.392283,-30.663609 h -0.0099 v -2.733348 0 c 0,-0.257179 0,-0.520952 0,-0.794616 V 63.899003 c 0,-1.130926 0,-2.433306 0,-3.524666 0,-0.781428 0,-1.457346 0,-1.889274 0,-0.431929 0,-1.107847 0,-1.889274 0,-1.094658 0,-2.39374 0,-3.524667 V 10.270657 3.52467 C 58.801589,1.58594 57.215651,0 55.27692,0 H 3.5246666 C 1.5859351,0 0,1.58594 0,3.52467 v 6.742694 52.632603 3.527964 h 0.00659432 c 0.00329717,0 0,0.346202 -0.00659432,0.768239 0,0 0,0 0,0.385768 0,0.517654 0.00659432,1.035309 0.01978297,1.549666 0.0032972,0.138481 0.0065943,0.273665 0.0098915,0.412145 0.01318865,0.458306 0.02967446,0.913314 0.0527546,1.368323 0.0032972,0.06265 0.0032972,0.125292 0.0065943,0.191235 0.0263773,0.501169 0.05934893,1.005635 0.09561771,1.506803 0.009891,0.138481 0.0230801,0.276962 0.0329716,0.41874 0.0329716,0.412145 0.0692404,0.820993 0.10880636,1.229842 0.009891,0.108806 0.019783,0.214315 0.0329716,0.323121 0.0494574,0.484683 0.1055092,0.969366 0.16815528,1.450752 0.0164858,0.145075 0.039566,0.29015 0.0593489,0.431928 0.0494574,0.375877 0.10221203,0.751753 0.15826379,1.124333 0.019783,0.13848 0.039566,0.280258 0.0626461,0.418739 0.0725376,0.468197 0.15166947,0.933097 0.23409849,1.397997 0.026377,0.148372 0.056052,0.296745 0.082429,0.448414 0.065943,0.346202 0.1318865,0.695701 0.2011269,1.041903 0.032972,0.161561 0.065943,0.32642 0.098915,0.487981 0.095618,0.448414 0.1945325,0.896828 0.2967446,1.345242 0.032972,0.148372 0.06924,0.296744 0.1055092,0.44182 0.079132,0.33631 0.1615609,0.666026 0.2472871,0.99904 0.042863,0.174749 0.089023,0.349499 0.1351837,0.524249 0.1154007,0.435225 0.2340985,0.87045 0.3560935,1.305676 v 0 c 8.1143168,28.375383 34.5179938,49.170583 65.8377388,49.170583 37.778889,0 68.409529,-30.25806 68.409529,-67.588532 C 136.81946,30.258059 106.37965,-1.32216 68.623841,0.06594 Z"
   id="path34"
   style="fill:url(#SVGID_2_);stroke-width:3.29716229" /><rect
   style="fill:#231f20;stroke-width:3.29716229"
   id="rect36"
   height="78.518623"
   width="8.9748755"
   y="46.78014"
   x="252.38458" /><path
   style="fill:#231f20;stroke-width:3.29716229"
   id="path38"
   d="m 282.2371,46.282269 -7.10868,5.476586 25.59917,33.218912 c 0.12199,0.201126 0.12529,0.748455 0.0132,0.933096 l -25.64863,34.201467 7.17792,5.38427 25.64863,-34.20147 c 2.52892,-3.372997 2.49595,-8.440736 -0.0758,-11.780762 z" /><path
   style="fill:#231f20;stroke-width:3.29716229"
   id="path40"
   d="m 323.12192,84.994252 25.60906,-33.235397 -7.10869,-5.476586 -25.60906,33.235397 c -2.57508,3.340025 -2.60805,8.404467 -0.0758,11.780761 l 25.64862,34.201463 7.17793,-5.38426 -25.63874,-34.184984 c -0.1187,-0.204424 -0.1154,-0.751753 -0.003,-0.936394 z" /><rect
   style="fill:#231f20;stroke-width:3.29702878"
   id="rect42"
   height="8.9745121"
   width="113.2958"
   transform="rotate(-71.885763)"
   y="476.38998"
   x="-6.3953724" /><rect
   style="fill:#231f20;stroke-width:3.29726982"
   id="rect44"
   height="65.938797"
   width="8.9718714"
   transform="rotate(-17.336936)"
   y="175.11285"
   x="395.67178" /><path
   style="fill:#231f20;stroke-width:3.29716229"
   id="path46"
   d="m 393.01516,47.44287 h -2.90809 c -4.43469,0 -8.65505,0.933097 -12.48306,2.608055 l 3.70931,8.167071 c 2.69708,-1.157304 5.66123,-1.80025 8.77375,-1.80025 h 2.90809 c 12.36766,0 22.4339,10.135477 22.4339,22.595454 v 15.96486 c 0,12.45998 -10.06294,22.59545 -22.4339,22.59545 h -2.90809 c -12.37096,0 -22.4339,-10.13547 -22.4339,-22.59545 V 86.247174 16.990278 h -8.97487 v 68.811779 9.172706 0.03627 0 c 0.0198,17.389237 14.09866,31.530767 31.40547,31.530767 h 2.9081 c 17.31669,0 31.40547,-14.16132 31.40547,-31.567036 v -15.96486 c 0.003,-17.405721 -14.08548,-31.567033 -31.40218,-31.567033 z" /><path
   style="fill:#231f20;stroke-width:3.29716229"
   id="path48"
   d="m 223.36297,74.285069 c 4.20718,4.563273 6.79875,10.735561 6.79875,17.527715 0,14.019536 -11.02571,25.424416 -24.57705,25.424416 h -2.77951 c -13.55134,0 -24.57705,-11.40488 -24.57705,-25.424416 0,-0.53414 0.0198,-1.058389 0.0528,-1.582638 h -0.0528 V 49.938822 h -8.97487 v 41.877259 c 0,18.965279 15.04825,34.399299 33.54862,34.399299 h 2.77951 c 18.50038,0 33.54863,-15.43402 33.54863,-34.399299 0,-8.941904 -3.34992,-17.099084 -8.82321,-23.221914 z" /><path
   style="fill:#231f20;stroke-width:3.29716229"
   id="path50"
   d="m 200.47737,17.989318 c 12.26544,0 22.24595,9.720035 22.24595,21.665654 0,11.948917 -9.98051,21.665654 -22.24595,21.665654 v 8.971579 c 17.21448,0 31.22083,-13.742573 31.22083,-30.637233 0,-16.89466 -14.00635,-30.637232 -31.22083,-30.637232 -17.09579,0 -31.01641,13.554634 -31.21094,30.287733 h 8.97487 c 0.19124,-11.787356 10.08932,-21.316155 22.23607,-21.316155 z" />
</svg>